<?xml version="1.0" standalone="no"?><!DOCTYPE svg PUBLIC "-//W3C//DTD SVG 1.1//EN" "http://www.w3.org/Graphics/SVG/1.1/DTD/svg11.dtd"><svg t="1640513751304" class="icon" viewBox="0 0 1024 1024" version="1.1" xmlns="http://www.w3.org/2000/svg" p-id="4181" width="200" height="200" xmlns:xlink="http://www.w3.org/1999/xlink"><defs><style type="text/css"></style></defs><path d="M168.145455 134.516364a67.258182 67.258182 0 1 0 0-134.516364 67.258182 67.258182 0 0 0 0 134.516364M134.516364 835.095273a67.258182 67.258182 0 1 0-134.516364 0 67.258182 67.258182 0 0 0 134.516364 0" p-id="4182" fill="#4590f7"></path><path d="M654.801455 652.311273a1425.221818 1425.221818 0 0 1-145.198546 127.162182 1425.221818 1425.221818 0 0 1-145.175273-127.162182 1424.616727 1424.616727 0 0 1-127.162181-145.175273 1424.616727 1424.616727 0 0 1 127.162181-145.175273 1425.826909 1425.826909 0 0 1 145.175273-127.185454 1426.455273 1426.455273 0 0 1 145.198546 127.185454A1425.221818 1425.221818 0 0 1 781.963636 507.112727a1425.221818 1425.221818 0 0 1-127.162181 145.175273m185.204363-145.175273c41.355636-57.762909 75.054545-115.316364 99.095273-169.960727 13.963636-31.837091 24.250182-61.812364 30.836364-89.646545-6.632727 1.768727-13.591273 2.792727-20.782546 2.792727a80.756364 80.756364 0 0 1-26.926545-4.677818 500.829091 500.829091 0 0 1-25.949091 72.704c-21.085091 47.988364-50.176 98.443636-85.690182 149.410909a1479.819636 1479.819636 0 0 0-122.740364-138.891637 1479.098182 1479.098182 0 0 0-138.868363-122.717091c50.967273-35.514182 101.422545-64.605091 149.410909-85.690181 54.248727-23.854545 101.911273-35.84 139.659636-35.84 26.368 0 47.872 5.864727 63.464727 17.664a80.733091 80.733091 0 0 1 47.639273-15.569455c0.837818 0 1.652364 0.116364 2.490182 0.139636a114.315636 114.315636 0 0 0-10.123636-11.636363c-50.478545-50.501818-143.522909-49.640727-261.957819 2.420363-54.644364 24.040727-112.174545 57.716364-169.960727 99.095273-57.762909-41.355636-115.316364-75.054545-169.960727-99.095273-32.674909-14.359273-63.394909-24.808727-91.834182-31.371636 1.373091 5.957818 2.164364 12.125091 2.164364 18.525091 0 10.123636-1.908364 19.781818-5.282909 28.765091 23.458909 5.981091 48.965818 14.964364 76.12509 26.903273 47.988364 21.085091 98.443636 50.176 149.41091 85.690181a1479.68 1479.68 0 0 0-138.868364 122.717091 1479.819636 1479.819636 0 0 0-122.740364 138.868364c-35.490909-50.944-64.581818-101.399273-85.666909-149.410909-40.448-91.973818-46.871273-165.026909-18.338909-202.938182a81.570909 81.570909 0 0 1-17.454545-48.64 114.920727 114.920727 0 0 0-9.472 8.448c-50.501818 50.501818-49.617455 143.522909 2.443636 261.981091 24.017455 54.644364 57.716364 112.174545 99.095273 169.960727-41.355636 57.762909-75.077818 115.316364-99.095273 169.960728a546.373818 546.373818 0 0 0-27.973818 78.242909 80.989091 80.989091 0 0 1 17.826909-2.048c10.519273 0 20.503273 2.094545 29.719273 5.701818 5.794909-19.781818 13.474909-40.843636 23.249454-63.069091 21.085091-47.988364 50.176-98.466909 85.666909-149.410909a1479.051636 1479.051636 0 0 0 122.740364 138.868363 1479.168 1479.168 0 0 0 138.868364 122.740364c-50.967273 35.490909-101.422545 64.581818-149.41091 85.666909-98.117818 43.124364-174.685091 47.569455-210.059636 12.194909l-0.069818-0.093091a80.64 80.64 0 0 1-50.641455 10.333091c4.957091 8.354909 10.798545 15.988364 17.640728 22.807273 24.832 24.855273 59.973818 37.259636 103.330909 37.259636 44.823273 0 98.443636-13.242182 158.626909-39.68 54.644364-24.017455 112.197818-57.716364 169.960727-99.095272 57.786182 41.355636 115.316364 75.077818 169.960727 99.095272 32.628364 14.336 63.301818 24.762182 91.694546 31.325091a82.245818 82.245818 0 0 1 0.302545-48.081454 500.084364 500.084364 0 0 1-73.169454-26.065455c-47.988364-21.085091-98.443636-50.176-149.410909-85.690182a1477.725091 1477.725091 0 0 0 138.868363-122.717091 1478.516364 1478.516364 0 0 0 122.740364-138.868363c35.514182 50.944 64.605091 101.422545 85.690182 149.410909 39.866182 90.693818 46.592 162.909091 19.432727 201.262545 9.425455 13.358545 14.987636 29.602909 14.987636 47.197091 0 1.466182-0.139636 2.885818-0.209454 4.328728 3.863273-2.978909 7.563636-6.190545 11.031273-9.658182 50.501818-50.501818 49.640727-143.522909-2.420364-261.957818-24.040727-54.644364-57.716364-112.197818-99.095273-169.960728" p-id="4183" fill="#4590f7"></path><path d="M850.501818 876.497455a67.258182 67.258182 0 1 0 0 134.516363 67.258182 67.258182 0 0 0 0-134.516363M951.645091 101.236364a67.258182 67.258182 0 1 0 0 134.539636 67.258182 67.258182 0 0 0 0-134.516364M515.537455 551.563636a58.088727 58.088727 0 1 1 0-116.177454 58.088727 58.088727 0 0 1 0 116.154182m0-176.034909a117.969455 117.969455 0 1 0 0 235.915636 117.969455 117.969455 0 0 0 0-235.915636" p-id="4184" fill="#4590f7"></path></svg>