<?xml version="1.0" standalone="no"?><!DOCTYPE svg PUBLIC "-//W3C//DTD SVG 1.1//EN" "http://www.w3.org/Graphics/SVG/1.1/DTD/svg11.dtd"><svg t="1640513891484" class="icon" viewBox="0 0 1024 1024" version="1.1" xmlns="http://www.w3.org/2000/svg" p-id="8604" xmlns:xlink="http://www.w3.org/1999/xlink" width="200" height="200"><defs><style type="text/css"></style></defs><path d="M737.962667 746.837333m-277.162667 0a277.162667 277.162667 0 1 0 554.325333 0 277.162667 277.162667 0 1 0-554.325333 0Z" fill="#4590f7" opacity=".16" p-id="8605"></path><path d="M746.496 327.168V164.352L462.336 1.536 460.8 0 176.64 162.816l-1.536 1.536v162.816L0 428.544v328.704l284.16 162.816 1.536 1.536L460.8 820.224 635.904 921.6l284.16-162.816 1.536-1.536V428.544l-175.104-101.376z m-176.64 430.08V428.544l-69.12-39.936 135.168-78.336 244.224 141.312v282.624L635.904 875.52l-135.168-78.336 69.12-39.936z m135.168-453.12l-69.12-39.936L460.8 365.568l-175.104-101.376-69.12 39.936v-116.736L460.8 46.08l244.224 141.312v116.736zM420.864 797.184l-135.168 78.336-245.76-141.312V451.584l244.224-141.312 135.168 78.336-69.12 39.936v328.704l70.656 39.936z m-29.184-345.6L460.8 411.648l69.12 39.936v282.624L460.8 774.144l-69.12-39.936V451.584z" fill="#4590f7" p-id="8606"></path><path d="M460.8 506.88a15.36 15.36 0 0 1 15.36 15.36v138.24a15.36 15.36 0 1 1-30.72 0v-138.24a15.36 15.36 0 0 1 15.36-15.36zM460.8 153.6a15.36 15.36 0 0 1 15.36 15.36v76.8a15.36 15.36 0 1 1-30.72 0V168.96A15.36 15.36 0 0 1 460.8 153.6z" fill="#4590f7" p-id="8607"></path></svg>