<?xml version="1.0" standalone="no"?><!DOCTYPE svg PUBLIC "-//W3C//DTD SVG 1.1//EN" "http://www.w3.org/Graphics/SVG/1.1/DTD/svg11.dtd"><svg t="1640515040157" class="icon" viewBox="0 0 1024 1024" version="1.1" xmlns="http://www.w3.org/2000/svg" p-id="17132" xmlns:xlink="http://www.w3.org/1999/xlink" width="200" height="200"><defs><style type="text/css"></style></defs><path d="M958.26861 771.72899c-0.297951-0.799654-0.601021-1.600333-1.00136-2.402035-0.400339-0.798631-0.795559-1.600333-1.298287-2.396915L533.756539 74.831683c-4.700658-7.793815-13.095493-11.990721-21.592717-11.893452h-1.00136c-8.696882-0.296927-17.389668 3.997248-22.186571 11.893452L67.559025 765.730046c-1.098629 1.698626-2.098965 3.498616-2.800326 5.296559-1.195898 3.297935-1.796919 6.69621-1.599309 10.097557 0 10.19585 6.295871 19.888972 16.389333 23.58827L501.668997 955.64644c2.895548 1.000336 5.793143 1.498968 8.692786 1.498968h1.497945c4.602365 0 8.800294-1.199994 12.494472-3.396228L938.578271 805.409698c8.691763-1.394532 16.389332-7.297231 19.591022-16.091382 1.097605-2.898619 1.498968-5.895532 1.498968-8.795175 0.097269-2.897595-0.302046-5.894508-1.399651-8.794151zM536.953109 175.988481l340.050747 557.554706-340.050747-121.847473V175.988481z m-49.978914 434.609628L146.42584 732.445582l340.548355-558.35436v436.506887z m0 53.079239V897.274737L160.2186 780.524165l326.755595-116.846817z m49.978914 1.097605l323.057322 115.749212-323.057322 115.750236V664.774953z m0 0" p-id="17133" fill="#4590f7"></path></svg>